<svg width="14" height="14" viewBox="0 0 14 14" fill="none" xmlns="http://www.w3.org/2000/svg">
<path d="M1.04928 6.7333C1.04928 6.7333 0.60854 6.09089 1.25135 5.65054C1.89337 5.21019 2.33372 5.85222 2.33372 5.85222L4.37816 8.83381C4.44863 8.71623 4.52572 8.6002 4.61177 8.48574L1.77423 4.34819C1.77423 4.34819 1.33389 3.70616 1.9763 3.26581C2.61833 2.82547 3.05868 3.46749 3.05868 3.46749L5.72762 7.35976C5.82691 7.27877 5.92852 7.1974 6.03326 7.11758L2.93915 2.60471C2.93915 2.60471 2.4988 1.96268 3.14122 1.52233C3.78324 1.08199 4.22359 1.72401 4.22359 1.72401L7.3177 6.23611C7.43139 6.16642 7.54391 6.10607 7.65682 6.04222L4.76478 1.82485C4.76478 1.82485 4.32443 1.18283 4.96646 0.74248C5.60848 0.302133 6.04883 0.94416 6.04883 0.94416L9.10673 5.4037L9.57161 6.08193C7.64514 7.40336 7.46176 9.88932 8.56243 11.4946C8.78241 11.8158 9.10362 11.5958 9.10362 11.5958C7.78258 9.66895 8.18594 7.50381 10.1128 6.18277L9.54474 3.33979C9.54474 3.33979 9.33255 2.59069 10.0813 2.37811C10.8304 2.16592 11.0429 2.91501 11.0429 2.91501L11.699 4.86329C11.9591 5.63574 12.2359 6.40548 12.6023 7.13355C13.6367 9.18928 13.0189 11.7441 11.0682 13.0823C8.94048 14.5412 6.0317 13.9988 4.57244 11.8715L1.04928 6.7333Z" fill="#FFDC5D"/>
</svg>
