<svg width="14" height="14" viewBox="0 0 14 14" fill="none" xmlns="http://www.w3.org/2000/svg">
<path d="M1.89259 3.54499C2.25857 3.28919 2.81027 3.33824 3.13887 3.60962L2.76199 3.06181C2.45869 2.62925 2.56732 2.16126 3.00027 1.85757C3.43322 1.55505 4.66004 2.36839 4.66004 2.36839C4.35401 1.93155 4.41125 1.3779 4.84809 1.07149C5.28493 0.766243 5.88764 0.871755 6.19366 1.30938L10.2506 7.04051L9.73357 12.0533L5.41848 10.4796L1.6547 4.89912C1.34595 4.45955 1.45263 3.85335 1.89259 3.54499Z" fill="#EF9645"/>
<path d="M1.04928 6.7333C1.04928 6.7333 0.60854 6.09089 1.25135 5.65054C1.89337 5.21019 2.33372 5.85222 2.33372 5.85222L4.37816 8.83381C4.44863 8.71623 4.52572 8.6002 4.61177 8.48574L1.77423 4.34819C1.77423 4.34819 1.33389 3.70616 1.9763 3.26581C2.61833 2.82547 3.05868 3.46749 3.05868 3.46749L5.72762 7.35976C5.82691 7.27877 5.92852 7.1974 6.03326 7.11758L2.93915 2.60471C2.93915 2.60471 2.4988 1.96268 3.14122 1.52233C3.78324 1.08199 4.22359 1.72401 4.22359 1.72401L7.3177 6.23611C7.43139 6.16642 7.54391 6.10607 7.65682 6.04222L4.76478 1.82485C4.76478 1.82485 4.32443 1.18283 4.96646 0.74248C5.60848 0.302133 6.04883 0.94416 6.04883 0.94416L9.10673 5.4037L9.57161 6.08193C7.64514 7.40336 7.46176 9.88932 8.56243 11.4946C8.78241 11.8158 9.10362 11.5958 9.10362 11.5958C7.78258 9.66895 8.18594 7.50381 10.1128 6.18277L9.54474 3.33979C9.54474 3.33979 9.33255 2.59069 10.0813 2.37811C10.8304 2.16592 11.0429 2.91501 11.0429 2.91501L11.699 4.86329C11.9591 5.63574 12.2359 6.40548 12.6023 7.13355C13.6367 9.18928 13.0189 11.7441 11.0682 13.0823C8.94048 14.5412 6.0317 13.9988 4.57244 11.8715L1.04928 6.7333Z" fill="#FFDC5D"/>
<path d="M4.67211 12.459C3.11474 12.459 1.54102 10.8853 1.54102 9.32788C1.54102 9.11257 1.38333 8.93854 1.16802 8.93854C0.952718 8.93854 0.762329 9.11257 0.762329 9.32788C0.762329 11.6639 2.33605 13.2377 4.67211 13.2377C4.88742 13.2377 5.06146 13.0473 5.06146 12.832C5.06146 12.6167 4.88742 12.459 4.67211 12.459Z" fill="#5DADEC"/>
<path d="M2.7254 13.2213C1.55737 13.2213 0.778686 12.4426 0.778686 11.2746C0.778686 11.0593 0.60465 10.8853 0.389343 10.8853C0.174036 10.8853 0 11.0593 0 11.2746C0 12.832 1.16803 14 2.7254 14C2.94071 14 3.11474 13.826 3.11474 13.6107C3.11474 13.3953 2.94071 13.2213 2.7254 13.2213ZM9.34423 0.762329C9.12932 0.762329 8.95489 0.936755 8.95489 1.15167C8.95489 1.36659 9.12932 1.54102 9.34423 1.54102C10.9016 1.54102 12.459 2.93837 12.459 4.65576C12.459 4.87068 12.6334 5.0451 12.8483 5.0451C13.0632 5.0451 13.2377 4.87068 13.2377 4.65576C13.2377 2.50892 11.6803 0.762329 9.34423 0.762329Z" fill="#5DADEC"/>
<path d="M11.291 0C11.076 0 10.9016 0.158073 10.9016 0.372991C10.9016 0.587908 11.076 0.778686 11.291 0.778686C12.459 0.778686 13.2213 1.64497 13.2213 2.70905C13.2213 2.92397 13.4117 3.09839 13.627 3.09839C13.8423 3.09839 14 2.92397 14 2.70905C14 1.21514 12.8483 0 11.291 0Z" fill="#5DADEC"/>
</svg>
