<svg width="460" height="332" viewBox="0 0 460 332" fill="none" xmlns="http://www.w3.org/2000/svg">
<path d="M405.189 332C404.907 332 404.677 331.771 404.677 331.488L404.677 330.975L423.118 330.975L423.118 331.488C423.118 331.771 422.889 332 422.606 332L405.189 332Z" fill="#C4C4C4"/>
<path d="M460 307.151C460 307.434 459.771 307.664 459.488 307.664L458.964 307.664L458.976 285.377L459.488 285.377C459.771 285.377 460 285.606 460 285.889L460 307.151Z" fill="#C4C4C4"/>
<path d="M382.138 331.488C382.138 331.771 382.368 332 382.65 332L400.067 332C400.35 332 400.579 331.771 400.579 331.488L400.579 330.975L382.138 330.975L382.138 331.488Z" fill="#C4C4C4"/>
<path fill-rule="evenodd" clip-rule="evenodd" d="M458.976 306.895C458.976 320.194 448.197 330.975 434.9 330.975L24.0757 330.975C10.7791 330.975 1.29138e-05 320.194 1.34951e-05 306.895L2.58574e-05 24.0803C2.64387e-05 10.7811 10.7791 -7.2383e-06 24.0757 -6.65709e-06L434.9 1.13006e-05C448.197 1.18818e-05 458.976 10.7811 458.976 24.0803L458.976 306.895ZM434.9 329.694L24.0757 329.694C11.4863 329.694 1.28059 319.487 1.28059 306.895L1.2806 24.0803C1.28061 11.4885 11.4864 1.28088 24.0757 1.28088L434.9 1.2809C447.489 1.2809 457.695 11.4885 457.695 24.0803L457.695 306.895C457.695 319.487 447.489 329.694 434.9 329.694Z" fill="#C4C4C4"/>
</svg>
