<svg width="289" height="148" viewBox="0 0 289 148" fill="none" xmlns="http://www.w3.org/2000/svg">
<path d="M19.064 35.576C15.64 35.576 12.536 34.84 9.752 33.368C7 31.864 4.824 29.8 3.224 27.176C1.656 24.52 0.872 21.528 0.872 18.2C0.872 14.872 1.656 11.896 3.224 9.272C4.824 6.616 7 4.552 9.752 3.08C12.536 1.576 15.656 0.823999 19.112 0.823999C22.024 0.823999 24.648 1.336 26.984 2.36C29.352 3.384 31.336 4.856 32.936 6.776L27.944 11.384C25.672 8.76 22.856 7.448 19.496 7.448C17.416 7.448 15.56 7.912 13.928 8.84C12.296 9.736 11.016 11 10.088 12.632C9.192 14.264 8.744 16.12 8.744 18.2C8.744 20.28 9.192 22.136 10.088 23.768C11.016 25.4 12.296 26.68 13.928 27.608C15.56 28.504 17.416 28.952 19.496 28.952C22.856 28.952 25.672 27.624 27.944 24.968L32.936 29.576C31.336 31.528 29.352 33.016 26.984 34.04C24.616 35.064 21.976 35.576 19.064 35.576ZM49.0565 35.384C46.3365 35.384 43.8885 34.824 41.7125 33.704C39.5685 32.552 37.8885 30.968 36.6725 28.952C35.4565 26.936 34.8485 24.648 34.8485 22.088C34.8485 19.528 35.4565 17.24 36.6725 15.224C37.8885 13.208 39.5685 11.64 41.7125 10.52C43.8885 9.368 46.3365 8.792 49.0565 8.792C51.7765 8.792 54.2085 9.368 56.3525 10.52C58.4965 11.64 60.1765 13.208 61.3925 15.224C62.6085 17.24 63.2165 19.528 63.2165 22.088C63.2165 24.648 62.6085 26.936 61.3925 28.952C60.1765 30.968 58.4965 32.552 56.3525 33.704C54.2085 34.824 51.7765 35.384 49.0565 35.384ZM49.0565 29.24C50.9765 29.24 52.5445 28.6 53.7605 27.32C55.0085 26.008 55.6325 24.264 55.6325 22.088C55.6325 19.912 55.0085 18.184 53.7605 16.904C52.5445 15.592 50.9765 14.936 49.0565 14.936C47.1365 14.936 45.5525 15.592 44.3045 16.904C43.0565 18.184 42.4325 19.912 42.4325 22.088C42.4325 24.264 43.0565 26.008 44.3045 27.32C45.5525 28.6 47.1365 29.24 49.0565 29.24ZM83.9176 8.792C87.1176 8.792 89.6936 9.752 91.6456 11.672C93.6296 13.592 94.6216 16.44 94.6216 20.216V35H87.1336V21.368C87.1336 19.32 86.6856 17.8 85.7896 16.808C84.8936 15.784 83.5976 15.272 81.9016 15.272C80.0136 15.272 78.5096 15.864 77.3896 17.048C76.2696 18.2 75.7096 19.928 75.7096 22.232V35H68.2216V9.176H75.3736V12.2C76.3656 11.112 77.5976 10.28 79.0696 9.704C80.5416 9.096 82.1576 8.792 83.9176 8.792ZM117.105 8.792C120.305 8.792 122.881 9.752 124.833 11.672C126.817 13.592 127.809 16.44 127.809 20.216V35H120.321V21.368C120.321 19.32 119.873 17.8 118.977 16.808C118.081 15.784 116.785 15.272 115.089 15.272C113.201 15.272 111.697 15.864 110.577 17.048C109.457 18.2 108.897 19.928 108.897 22.232V35H101.409V9.176H108.561V12.2C109.553 11.112 110.785 10.28 112.257 9.704C113.729 9.096 115.345 8.792 117.105 8.792ZM160.174 22.184C160.174 22.28 160.126 22.952 160.03 24.2H140.494C140.846 25.8 141.678 27.064 142.99 27.992C144.302 28.92 145.934 29.384 147.886 29.384C149.23 29.384 150.414 29.192 151.438 28.808C152.494 28.392 153.47 27.752 154.366 26.888L158.35 31.208C155.918 33.992 152.366 35.384 147.694 35.384C144.782 35.384 142.206 34.824 139.966 33.704C137.726 32.552 135.998 30.968 134.782 28.952C133.566 26.936 132.958 24.648 132.958 22.088C132.958 19.56 133.55 17.288 134.734 15.272C135.95 13.224 137.598 11.64 139.678 10.52C141.79 9.368 144.142 8.792 146.734 8.792C149.262 8.792 151.55 9.336 153.598 10.424C155.646 11.512 157.246 13.08 158.398 15.128C159.582 17.144 160.174 19.496 160.174 22.184ZM146.782 14.456C145.086 14.456 143.662 14.936 142.51 15.896C141.358 16.856 140.654 18.168 140.398 19.832H153.118C152.862 18.2 152.158 16.904 151.006 15.944C149.854 14.952 148.446 14.456 146.782 14.456ZM177.639 35.384C174.887 35.384 172.407 34.824 170.199 33.704C168.023 32.552 166.311 30.968 165.063 28.952C163.847 26.936 163.239 24.648 163.239 22.088C163.239 19.528 163.847 17.24 165.063 15.224C166.311 13.208 168.023 11.64 170.199 10.52C172.407 9.368 174.887 8.792 177.639 8.792C180.359 8.792 182.727 9.368 184.743 10.52C186.791 11.64 188.279 13.256 189.207 15.368L183.399 18.488C182.055 16.12 180.119 14.936 177.591 14.936C175.639 14.936 174.023 15.576 172.743 16.856C171.463 18.136 170.823 19.88 170.823 22.088C170.823 24.296 171.463 26.04 172.743 27.32C174.023 28.6 175.639 29.24 177.591 29.24C180.151 29.24 182.087 28.056 183.399 25.688L189.207 28.856C188.279 30.904 186.791 32.504 184.743 33.656C182.727 34.808 180.359 35.384 177.639 35.384ZM210.55 33.752C209.814 34.296 208.902 34.712 207.814 35C206.758 35.256 205.638 35.384 204.454 35.384C201.382 35.384 198.998 34.6 197.302 33.032C195.638 31.464 194.806 29.16 194.806 26.12V15.512H190.822V9.752H194.806V3.464H202.294V9.752H208.726V15.512H202.294V26.024C202.294 27.112 202.566 27.96 203.109 28.568C203.686 29.144 204.486 29.432 205.51 29.432C206.694 29.432 207.702 29.112 208.534 28.472L210.55 33.752ZM19.064 91.576C15.64 91.576 12.536 90.84 9.752 89.368C7 87.864 4.824 85.8 3.224 83.176C1.656 80.52 0.872 77.528 0.872 74.2C0.872 70.872 1.656 67.896 3.224 65.272C4.824 62.616 7 60.552 9.752 59.08C12.536 57.576 15.656 56.824 19.112 56.824C22.024 56.824 24.648 57.336 26.984 58.36C29.352 59.384 31.336 60.856 32.936 62.776L27.944 67.384C25.672 64.76 22.856 63.448 19.496 63.448C17.416 63.448 15.56 63.912 13.928 64.84C12.296 65.736 11.016 67 10.088 68.632C9.192 70.264 8.744 72.12 8.744 74.2C8.744 76.28 9.192 78.136 10.088 79.768C11.016 81.4 12.296 82.68 13.928 83.608C15.56 84.504 17.416 84.952 19.496 84.952C22.856 84.952 25.672 83.624 27.944 80.968L32.936 85.576C31.336 87.528 29.352 89.016 26.984 90.04C24.616 91.064 21.976 91.576 19.064 91.576ZM49.0565 91.384C46.3365 91.384 43.8885 90.824 41.7125 89.704C39.5685 88.552 37.8885 86.968 36.6725 84.952C35.4565 82.936 34.8485 80.648 34.8485 78.088C34.8485 75.528 35.4565 73.24 36.6725 71.224C37.8885 69.208 39.5685 67.64 41.7125 66.52C43.8885 65.368 46.3365 64.792 49.0565 64.792C51.7765 64.792 54.2085 65.368 56.3525 66.52C58.4965 67.64 60.1765 69.208 61.3925 71.224C62.6085 73.24 63.2165 75.528 63.2165 78.088C63.2165 80.648 62.6085 82.936 61.3925 84.952C60.1765 86.968 58.4965 88.552 56.3525 89.704C54.2085 90.824 51.7765 91.384 49.0565 91.384ZM49.0565 85.24C50.9765 85.24 52.5445 84.6 53.7605 83.32C55.0085 82.008 55.6325 80.264 55.6325 78.088C55.6325 75.912 55.0085 74.184 53.7605 72.904C52.5445 71.592 50.9765 70.936 49.0565 70.936C47.1365 70.936 45.5525 71.592 44.3045 72.904C43.0565 74.184 42.4325 75.912 42.4325 78.088C42.4325 80.264 43.0565 82.008 44.3045 83.32C45.5525 84.6 47.1365 85.24 49.0565 85.24ZM68.2216 55.384H75.7096V91H68.2216V55.384ZM82.6591 55.384H90.1471V91H82.6591V55.384ZM122.393 78.184C122.393 78.28 122.345 78.952 122.249 80.2H102.713C103.065 81.8 103.897 83.064 105.209 83.992C106.521 84.92 108.153 85.384 110.105 85.384C111.449 85.384 112.633 85.192 113.657 84.808C114.713 84.392 115.689 83.752 116.585 82.888L120.569 87.208C118.137 89.992 114.585 91.384 109.913 91.384C107.001 91.384 104.425 90.824 102.185 89.704C99.9446 88.552 98.2166 86.968 97.0006 84.952C95.7846 82.936 95.1766 80.648 95.1766 78.088C95.1766 75.56 95.7686 73.288 96.9526 71.272C98.1686 69.224 99.8166 67.64 101.897 66.52C104.009 65.368 106.361 64.792 108.953 64.792C111.481 64.792 113.769 65.336 115.817 66.424C117.865 67.512 119.465 69.08 120.617 71.128C121.801 73.144 122.393 75.496 122.393 78.184ZM109.001 70.456C107.305 70.456 105.881 70.936 104.729 71.896C103.577 72.856 102.873 74.168 102.617 75.832H115.337C115.081 74.2 114.377 72.904 113.225 71.944C112.073 70.952 110.665 70.456 109.001 70.456ZM139.858 91.384C137.106 91.384 134.626 90.824 132.418 89.704C130.242 88.552 128.53 86.968 127.282 84.952C126.066 82.936 125.458 80.648 125.458 78.088C125.458 75.528 126.066 73.24 127.282 71.224C128.53 69.208 130.242 67.64 132.418 66.52C134.626 65.368 137.106 64.792 139.858 64.792C142.578 64.792 144.946 65.368 146.962 66.52C149.01 67.64 150.498 69.256 151.426 71.368L145.618 74.488C144.274 72.12 142.338 70.936 139.81 70.936C137.858 70.936 136.242 71.576 134.962 72.856C133.682 74.136 133.042 75.88 133.042 78.088C133.042 80.296 133.682 82.04 134.962 83.32C136.242 84.6 137.858 85.24 139.81 85.24C142.37 85.24 144.306 84.056 145.618 81.688L151.426 84.856C150.498 86.904 149.01 88.504 146.962 89.656C144.946 90.808 142.578 91.384 139.858 91.384ZM172.768 89.752C172.032 90.296 171.12 90.712 170.032 91C168.976 91.256 167.856 91.384 166.672 91.384C163.6 91.384 161.216 90.6 159.52 89.032C157.856 87.464 157.024 85.16 157.024 82.12V71.512H153.04V65.752H157.024V59.464H164.512V65.752H170.944V71.512H164.512V82.024C164.512 83.112 164.784 83.96 165.328 84.568C165.904 85.144 166.704 85.432 167.728 85.432C168.912 85.432 169.92 85.112 170.752 84.472L172.768 89.752ZM19.064 147.576C15.64 147.576 12.536 146.84 9.752 145.368C7 143.864 4.824 141.8 3.224 139.176C1.656 136.52 0.872 133.528 0.872 130.2C0.872 126.872 1.656 123.896 3.224 121.272C4.824 118.616 7 116.552 9.752 115.08C12.536 113.576 15.656 112.824 19.112 112.824C22.024 112.824 24.648 113.336 26.984 114.36C29.352 115.384 31.336 116.856 32.936 118.776L27.944 123.384C25.672 120.76 22.856 119.448 19.496 119.448C17.416 119.448 15.56 119.912 13.928 120.84C12.296 121.736 11.016 123 10.088 124.632C9.192 126.264 8.744 128.12 8.744 130.2C8.744 132.28 9.192 134.136 10.088 135.768C11.016 137.4 12.296 138.68 13.928 139.608C15.56 140.504 17.416 140.952 19.496 140.952C22.856 140.952 25.672 139.624 27.944 136.968L32.936 141.576C31.336 143.528 29.352 145.016 26.984 146.04C24.616 147.064 21.976 147.576 19.064 147.576ZM49.0565 147.384C46.3365 147.384 43.8885 146.824 41.7125 145.704C39.5685 144.552 37.8885 142.968 36.6725 140.952C35.4565 138.936 34.8485 136.648 34.8485 134.088C34.8485 131.528 35.4565 129.24 36.6725 127.224C37.8885 125.208 39.5685 123.64 41.7125 122.52C43.8885 121.368 46.3365 120.792 49.0565 120.792C51.7765 120.792 54.2085 121.368 56.3525 122.52C58.4965 123.64 60.1765 125.208 61.3925 127.224C62.6085 129.24 63.2165 131.528 63.2165 134.088C63.2165 136.648 62.6085 138.936 61.3925 140.952C60.1765 142.968 58.4965 144.552 56.3525 145.704C54.2085 146.824 51.7765 147.384 49.0565 147.384ZM49.0565 141.24C50.9765 141.24 52.5445 140.6 53.7605 139.32C55.0085 138.008 55.6325 136.264 55.6325 134.088C55.6325 131.912 55.0085 130.184 53.7605 128.904C52.5445 127.592 50.9765 126.936 49.0565 126.936C47.1365 126.936 45.5525 127.592 44.3045 128.904C43.0565 130.184 42.4325 131.912 42.4325 134.088C42.4325 136.264 43.0565 138.008 44.3045 139.32C45.5525 140.6 47.1365 141.24 49.0565 141.24ZM80.5096 147.384C77.7896 147.384 75.3416 146.824 73.1656 145.704C71.0216 144.552 69.3416 142.968 68.1256 140.952C66.9096 138.936 66.3016 136.648 66.3016 134.088C66.3016 131.528 66.9096 129.24 68.1256 127.224C69.3416 125.208 71.0216 123.64 73.1656 122.52C75.3416 121.368 77.7896 120.792 80.5096 120.792C83.2296 120.792 85.6616 121.368 87.8056 122.52C89.9496 123.64 91.6296 125.208 92.8456 127.224C94.0616 129.24 94.6696 131.528 94.6696 134.088C94.6696 136.648 94.0616 138.936 92.8456 140.952C91.6296 142.968 89.9496 144.552 87.8056 145.704C85.6616 146.824 83.2296 147.384 80.5096 147.384ZM80.5096 141.24C82.4296 141.24 83.9976 140.6 85.2136 139.32C86.4616 138.008 87.0856 136.264 87.0856 134.088C87.0856 131.912 86.4616 130.184 85.2136 128.904C83.9976 127.592 82.4296 126.936 80.5096 126.936C78.5896 126.936 77.0056 127.592 75.7576 128.904C74.5096 130.184 73.8856 131.912 73.8856 134.088C73.8856 136.264 74.5096 138.008 75.7576 139.32C77.0056 140.6 78.5896 141.24 80.5096 141.24ZM106.827 124.584C107.723 123.336 108.923 122.392 110.427 121.752C111.963 121.112 113.723 120.792 115.707 120.792V127.704C114.875 127.64 114.315 127.608 114.027 127.608C111.883 127.608 110.203 128.216 108.987 129.432C107.771 130.616 107.163 132.408 107.163 134.808V147H99.6748V121.176H106.827V124.584ZM146.229 111.384V147H139.077V144.024C137.221 146.264 134.533 147.384 131.013 147.384C128.581 147.384 126.373 146.84 124.389 145.752C122.437 144.664 120.901 143.112 119.781 141.096C118.661 139.08 118.101 136.744 118.101 134.088C118.101 131.432 118.661 129.096 119.781 127.08C120.901 125.064 122.437 123.512 124.389 122.424C126.373 121.336 128.581 120.792 131.013 120.792C134.309 120.792 136.885 121.832 138.741 123.912V111.384H146.229ZM132.309 141.24C134.197 141.24 135.765 140.6 137.013 139.32C138.261 138.008 138.885 136.264 138.885 134.088C138.885 131.912 138.261 130.184 137.013 128.904C135.765 127.592 134.197 126.936 132.309 126.936C130.389 126.936 128.805 127.592 127.557 128.904C126.309 130.184 125.685 131.912 125.685 134.088C125.685 136.264 126.309 138.008 127.557 139.32C128.805 140.6 130.389 141.24 132.309 141.24ZM153.159 121.176H160.647V147H153.159V121.176ZM156.903 117.576C155.527 117.576 154.407 117.176 153.543 116.376C152.679 115.576 152.247 114.584 152.247 113.4C152.247 112.216 152.679 111.224 153.543 110.424C154.407 109.624 155.527 109.224 156.903 109.224C158.279 109.224 159.399 109.608 160.263 110.376C161.127 111.144 161.559 112.104 161.559 113.256C161.559 114.504 161.127 115.544 160.263 116.376C159.399 117.176 158.279 117.576 156.903 117.576ZM183.293 120.792C186.493 120.792 189.069 121.752 191.021 123.672C193.005 125.592 193.997 128.44 193.997 132.216V147H186.509V133.368C186.509 131.32 186.061 129.8 185.165 128.808C184.269 127.784 182.973 127.272 181.277 127.272C179.389 127.272 177.885 127.864 176.765 129.048C175.645 130.2 175.085 131.928 175.085 134.232V147H167.597V121.176H174.749V124.2C175.741 123.112 176.973 122.28 178.445 121.704C179.917 121.096 181.533 120.792 183.293 120.792ZM211.2 120.792C215.2 120.792 218.272 121.752 220.416 123.672C222.56 125.56 223.632 128.424 223.632 132.264V147H216.624V143.784C215.216 146.184 212.592 147.384 208.752 147.384C206.768 147.384 205.04 147.048 203.568 146.376C202.128 145.704 201.024 144.776 200.256 143.592C199.488 142.408 199.104 141.064 199.104 139.56C199.104 137.16 200 135.272 201.792 133.896C203.616 132.52 206.416 131.832 210.192 131.832H216.144C216.144 130.2 215.648 128.952 214.656 128.088C213.664 127.192 212.176 126.744 210.192 126.744C208.816 126.744 207.456 126.968 206.112 127.416C204.8 127.832 203.68 128.408 202.752 129.144L200.064 123.912C201.472 122.92 203.152 122.152 205.104 121.608C207.088 121.064 209.12 120.792 211.2 120.792ZM210.624 142.344C211.904 142.344 213.04 142.056 214.032 141.48C215.024 140.872 215.728 139.992 216.144 138.84V136.2H211.008C207.936 136.2 206.4 137.208 206.4 139.224C206.4 140.184 206.768 140.952 207.504 141.528C208.272 142.072 209.312 142.344 210.624 142.344ZM247.065 145.752C246.329 146.296 245.417 146.712 244.329 147C243.273 147.256 242.153 147.384 240.969 147.384C237.897 147.384 235.513 146.6 233.817 145.032C232.153 143.464 231.321 141.16 231.321 138.12V127.512H227.337V121.752H231.321V115.464H238.809V121.752H245.241V127.512H238.809V138.024C238.809 139.112 239.081 139.96 239.625 140.568C240.201 141.144 241.001 141.432 242.025 141.432C243.209 141.432 244.217 141.112 245.049 140.472L247.065 145.752ZM275.768 134.184C275.768 134.28 275.72 134.952 275.624 136.2H256.088C256.44 137.8 257.272 139.064 258.584 139.992C259.896 140.92 261.528 141.384 263.48 141.384C264.824 141.384 266.008 141.192 267.032 140.808C268.088 140.392 269.064 139.752 269.96 138.888L273.944 143.208C271.512 145.992 267.96 147.384 263.288 147.384C260.376 147.384 257.8 146.824 255.56 145.704C253.32 144.552 251.592 142.968 250.376 140.952C249.16 138.936 248.552 136.648 248.552 134.088C248.552 131.56 249.144 129.288 250.328 127.272C251.544 125.224 253.192 123.64 255.272 122.52C257.384 121.368 259.736 120.792 262.328 120.792C264.856 120.792 267.144 121.336 269.192 122.424C271.24 123.512 272.84 125.08 273.992 127.128C275.176 129.144 275.768 131.496 275.768 134.184ZM262.376 126.456C260.68 126.456 259.256 126.936 258.104 127.896C256.952 128.856 256.248 130.168 255.992 131.832H268.712C268.456 130.2 267.752 128.904 266.6 127.944C265.448 126.952 264.04 126.456 262.376 126.456Z" fill="url(#paint0_linear)"/>
<path d="M217.585 35.384C216.273 35.384 215.169 34.936 214.273 34.04C213.377 33.144 212.929 32.024 212.929 30.68C212.929 29.304 213.377 28.2 214.273 27.368C215.169 26.504 216.273 26.072 217.585 26.072C218.897 26.072 220.001 26.504 220.897 27.368C221.793 28.2 222.241 29.304 222.241 30.68C222.241 32.024 221.793 33.144 220.897 34.04C220.001 34.936 218.897 35.384 217.585 35.384ZM179.804 91.384C178.492 91.384 177.388 90.936 176.492 90.04C175.596 89.144 175.148 88.024 175.148 86.68C175.148 85.304 175.596 84.2 176.492 83.368C177.388 82.504 178.492 82.072 179.804 82.072C181.116 82.072 182.22 82.504 183.116 83.368C184.012 84.2 184.46 85.304 184.46 86.68C184.46 88.024 184.012 89.144 183.116 90.04C182.22 90.936 181.116 91.384 179.804 91.384ZM283.585 147.384C282.273 147.384 281.169 146.936 280.273 146.04C279.377 145.144 278.929 144.024 278.929 142.68C278.929 141.304 279.377 140.2 280.273 139.368C281.169 138.504 282.273 138.072 283.585 138.072C284.897 138.072 286.001 138.504 286.897 139.368C287.793 140.2 288.241 141.304 288.241 142.68C288.241 144.024 287.793 145.144 286.897 146.04C286.001 146.936 284.897 147.384 283.585 147.384Z" fill="url(#paint1_linear)"/>
<defs>
<linearGradient id="paint0_linear" x1="149.556" y1="-10" x2="149.556" y2="158" gradientUnits="userSpaceOnUse">
<stop stop-color="#FF6DB0"/>
<stop offset="1" stop-color="#458FF6"/>
</linearGradient>
<linearGradient id="paint1_linear" x1="149.556" y1="-10" x2="149.556" y2="158" gradientUnits="userSpaceOnUse">
<stop stop-color="#FF6DB0"/>
<stop offset="1" stop-color="#3188FF"/>
</linearGradient>
</defs>
</svg>
